<svg xmlns="http://www.w3.org/2000/svg" viewBox="0 0 2160.99 578.91"><title>Recurso 24</title><g id="Capa_2" data-name="Capa 2"><g id="Capa_1-2" data-name="Capa 1"><path d="M969.83,106.9H676.73a37.32,37.32,0,0,0-37.32,37.33v33H747.07V456.82a37.32,37.32,0,0,0,37.33,37.32h33V177.24H895A224.51,224.51,0,0,1,969.83,106.9Z"/><path d="M1582.65,106.9h31.78V356.12q0,41-19.28,72.09T1541,476.73q-34.83,17.41-81.39,17.41-46.77,0-81.59-17.41t-54-48.52q-19.18-31.11-19.18-72.09V106.9h31.78A37.32,37.32,0,0,1,1374,144.23V350.35q0,23.83,10.53,42.47a74.59,74.59,0,0,0,29.7,29.15q19.18,10.51,45.46,10.52T1505.18,422a73.74,73.74,0,0,0,29.71-29.15q10.44-18.63,10.43-42.47V144.23A37.33,37.33,0,0,1,1582.65,106.9Z"/><path d="M1081.38,106.9c-106.94,0-193.63,86.69-193.63,193.62s86.69,193.62,193.63,193.62S1275,407.46,1275,300.52,1188.31,106.9,1081.38,106.9Zm0,316.9a123.28,123.28,0,1,1,123.27-123.28A123.27,123.27,0,0,1,1081.38,423.8Z"/><circle cx="1081.38" cy="299.09" r="65.03"/><path d="M2031.53,300.52v0Z"/><path d="M1918.5,393.76l-.09.08a122.87,122.87,0,0,1-18.6,13.27l-.88.51q-3,1.69-6,3.23l-.59.3q-3.42,1.69-7,3.17l-.21.09c-2.14.89-4.31,1.7-6.51,2.47-.56.2-1.12.38-1.69.57q-2.76.93-5.58,1.72l-1.62.46c-2.38.63-4.78,1.21-7.22,1.71l-.51.09c-2.22.44-4.46.8-6.71,1.12-.73.11-1.47.19-2.2.28-1.8.23-3.62.41-5.45.55l-2.2.17c-2.5.15-5,.25-7.54.25a123.28,123.28,0,0,1,0-246.55c2.48,0,4.94.09,7.38.24.74,0,1.48.11,2.22.16q2.61.21,5.19.51,1.17.14,2.34.3,2.81.39,5.56.91c.52.09,1,.17,1.56.28,2.37.47,4.73,1,7,1.62.37.09.73.21,1.09.31q2.94.79,5.82,1.73l1.78.61q2.67.92,5.3,2l1.43.56a124.49,124.49,0,0,1,13.11,6.31l.63.36c1.92,1.09,3.81,2.22,5.67,3.41l.8.51a123.87,123.87,0,0,1,36.86,37h0c.3.47.56,1,.85,1.43h77.66c-1.82-5.08-3.78-10.09-6-15l-.09-.2a192,192,0,0,0-14-25.49l0-.08c-1.24-1.9-2.52-3.77-3.82-5.62l-.6-.84a194.25,194.25,0,0,0-17.34-21c-.46-.49-.92-1-1.39-1.46-1.33-1.37-2.67-2.72-4-4.05l-1.66-1.59q-6.48-6.15-13.5-11.69c-.81-.64-1.62-1.29-2.44-1.91-1.27-1-2.55-1.91-3.84-2.85-1-.71-2-1.41-3-2.1-1.25-.87-2.5-1.74-3.77-2.58s-2.34-1.5-3.51-2.25c-1.55-1-3.1-1.94-4.68-2.88-1.79-1.06-3.59-2.11-5.42-3.12-1.1-.6-2.22-1.17-3.33-1.76-1.41-.74-2.82-1.47-4.25-2.17q-1.69-.84-3.42-1.65-2.28-1.08-4.61-2.08c-1-.46-2.08-.93-3.13-1.36-2.51-1.05-5-2.06-7.6-3-.62-.23-1.26-.43-1.89-.66q-3.12-1.11-6.29-2.13l-3-.91q-2.73-.82-5.51-1.56l-3-.8q-3.18-.8-6.41-1.48c-.71-.15-1.4-.32-2.11-.46-2.83-.58-5.69-1.08-8.57-1.53-.76-.12-1.54-.21-2.31-.32-2.17-.31-4.36-.6-6.56-.84-1-.11-2-.2-3-.29q-3.15-.3-6.33-.49c-.92-.05-1.84-.12-2.77-.16-3-.14-6-.23-9.06-.23-106.93,0-193.62,86.69-193.62,193.62S1731,494.14,1837.91,494.14c3,0,6.08-.09,9.09-.23.94,0,1.87-.11,2.8-.17,2.11-.12,4.22-.28,6.31-.47l3.07-.31q3.18-.36,6.35-.81c.85-.12,1.71-.23,2.56-.36,2.91-.46,5.79-1,8.65-1.55l1.3-.29c2.44-.51,4.85-1.07,7.25-1.67,1-.24,1.89-.5,2.84-.75q2.86-.76,5.7-1.62l2.94-.9c2-.64,4-1.31,5.93-2,.77-.27,1.55-.53,2.31-.81q4-1.47,7.88-3.11c.69-.29,1.36-.6,2-.9q2.91-1.26,5.78-2.61l2.86-1.4q2.48-1.21,4.9-2.51c1-.5,1.91-1,2.85-1.53,1.76-1,3.5-2,5.22-3,.72-.43,1.46-.84,2.17-1.27q3.49-2.14,6.89-4.42c.82-.55,1.62-1.13,2.43-1.69,1.51-1.05,3-2.1,4.48-3.19.94-.69,1.88-1.4,2.81-2.11,1.34-1,2.67-2.07,4-3.13.9-.73,1.81-1.46,2.7-2.2,1.49-1.25,2.94-2.52,4.39-3.8.68-.61,1.38-1.2,2.06-1.82,1.93-1.76,3.81-3.57,5.67-5.4.84-.84,1.66-1.69,2.48-2.54,1.13-1.16,2.26-2.33,3.36-3.52q1.3-1.41,2.58-2.85c1-1.16,2.06-2.35,3.07-3.54.81-1,1.64-1.92,2.43-2.9,1.18-1.45,2.33-2.93,3.47-4.41s2-2.71,3-4.09,2.15-3,3.18-4.47c.75-1.08,1.46-2.19,2.19-3.29.81-1.25,1.62-2.5,2.41-3.76s1.43-2.33,2.13-3.51,1.5-2.58,2.23-3.87,1.32-2.32,2-3.5q1.39-2.62,2.71-5.3c.82-1.64,1.6-3.29,2.37-4.95q1-2.18,2-4.36c.55-1.28,1.07-2.56,1.59-3.85s1.09-2.71,1.61-4.07.94-2.51,1.39-3.77h-77.76A123.82,123.82,0,0,1,1918.5,393.76Z"/><path d="M2123.66,106.9h-33V265.35H1891.73c-11.71-17.16-31.48-29.86-53.82-29.86a65,65,0,1,0,0,130.06c23.55,0,44.18-11.12,55.6-29.86h197.14V494.14h33A37.33,37.33,0,0,0,2161,456.82V144.23A37.33,37.33,0,0,0,2123.66,106.9Z"/><path d="M401.38,195.22l.11.13a172.93,172.93,0,0,1,18.57,26l.71,1.23c1.58,2.76,3.09,5.58,4.52,8.43.13.28.28.55.42.83q2.37,4.78,4.44,9.74l.11.29c1.25,3,2.39,6,3.47,9.12.27.78.53,1.57.8,2.35.86,2.58,1.65,5.18,2.4,7.81.21.76.44,1.51.64,2.27.89,3.33,1.7,6.7,2.39,10.1.05.24.08.49.13.72.61,3.1,1.13,6.24,1.57,9.39.15,1,.27,2,.4,3.08q.46,3.78.76,7.62c.08,1,.17,2.05.23,3.09.21,3.49.36,7,.36,10.54a172.49,172.49,0,0,1-345,0c0-3.47.13-6.9.33-10.32.06-1,.16-2.08.24-3.11.19-2.44.42-4.86.71-7.27.13-1.09.26-2.18.41-3.27.37-2.61.8-5.2,1.27-7.77.14-.73.25-1.46.4-2.19q1-5,2.26-9.86c.14-.52.3-1,.44-1.53.74-2.74,1.55-5.46,2.43-8.14q.4-1.25.84-2.49,1.29-3.75,2.74-7.42c.26-.66.51-1.33.78-2a174,174,0,0,1,8.83-18.35c.16-.29.34-.58.5-.87q2.28-4,4.77-7.93l.72-1.13a173.5,173.5,0,0,1,51.82-51.58h0c.66-.42,1.35-.78,2-1.19V52.9c-7.11,2.54-14.13,5.29-21,8.39l-.28.13A269.76,269.76,0,0,0,123,81a.41.41,0,0,0-.11.07q-4,2.6-7.87,5.35l-1.18.84a271.64,271.64,0,0,0-29.43,24.26l-2,1.94q-2.88,2.79-5.66,5.65c-.75.77-1.49,1.55-2.23,2.33q-8.59,9.06-16.35,18.88c-.9,1.14-1.81,2.27-2.68,3.42-1.36,1.77-2.68,3.57-4,5.38q-1.48,2-2.94,4.13c-1.21,1.74-2.42,3.49-3.6,5.26s-2.11,3.28-3.15,4.92c-1.37,2.16-2.72,4.34-4,6.54-1.49,2.51-3,5-4.36,7.59-.85,1.54-1.65,3.1-2.46,4.66-1,2-2.06,3.94-3.05,5.94-.78,1.59-1.55,3.18-2.3,4.79-1,2.13-2,4.29-2.92,6.45-.64,1.46-1.29,2.91-1.9,4.38-1.47,3.51-2.88,7.05-4.2,10.63-.32.88-.6,1.77-.91,2.65q-1.56,4.36-3,8.8c-.44,1.4-.85,2.8-1.27,4.21q-1.15,3.82-2.19,7.71c-.38,1.41-.76,2.82-1.11,4.24-.75,3-1.43,6-2.07,9-.21,1-.45,2-.65,2.95q-1.2,6-2.14,12c-.17,1.07-.3,2.15-.45,3.23q-.66,4.57-1.17,9.18-.22,2.1-.42,4.2-.4,4.41-.67,8.86c-.08,1.29-.17,2.58-.23,3.88C.13,299.52,0,303.74,0,308,0,457.61,121.29,578.91,270.92,578.91S541.83,457.61,541.83,308c0-4.27-.12-8.5-.32-12.72-.06-1.31-.15-2.61-.23-3.92q-.27-4.43-.67-8.82c-.14-1.44-.28-2.87-.44-4.3-.32-3-.7-5.93-1.12-8.88-.18-1.19-.32-2.4-.51-3.59-.64-4.06-1.35-8.1-2.16-12.1-.13-.61-.28-1.21-.41-1.82q-1.08-5.11-2.34-10.14c-.33-1.33-.7-2.65-1-4-.72-2.67-1.47-5.33-2.27-8q-.62-2.07-1.26-4.11c-.89-2.79-1.83-5.55-2.81-8.3-.38-1.08-.74-2.17-1.14-3.24q-2.05-5.57-4.34-11c-.41-.95-.85-1.89-1.26-2.84-1.18-2.72-2.39-5.42-3.66-8.1-.63-1.34-1.29-2.67-2-4-1.14-2.3-2.31-4.59-3.51-6.85-.71-1.33-1.41-2.67-2.14-4-1.36-2.46-2.77-4.89-4.2-7.31-.6-1-1.18-2-1.79-3q-3-4.89-6.17-9.64c-.78-1.15-1.58-2.27-2.37-3.4-1.46-2.11-2.94-4.21-4.46-6.27-1-1.32-1.95-2.62-2.95-3.92-1.44-1.89-2.9-3.74-4.39-5.59-1-1.26-2-2.53-3.08-3.78-1.74-2.08-3.52-4.12-5.32-6.14-.84-1-1.67-1.94-2.53-2.88q-3.71-4-7.57-7.94c-1.16-1.17-2.36-2.32-3.55-3.47-1.63-1.58-3.26-3.15-4.92-4.69-1.32-1.22-2.65-2.42-4-3.62q-2.46-2.17-5-4.29c-1.35-1.14-2.69-2.29-4.06-3.41-2-1.65-4.09-3.25-6.17-4.85-1.89-1.45-3.79-2.87-5.72-4.27s-4.14-3-6.25-4.45c-1.52-1-3.07-2-4.62-3.06-1.74-1.14-3.49-2.27-5.26-3.37s-3.26-2-4.91-3-3.6-2.09-5.41-3.11c-1.63-.92-3.25-1.85-4.9-2.73-2.44-1.31-4.92-2.56-7.41-3.8-2.29-1.14-4.6-2.23-6.93-3.31-2-.93-4.05-1.87-6.1-2.75-1.78-.77-3.59-1.5-5.39-2.24s-3.79-1.52-5.7-2.24c-1.74-.67-3.5-1.32-5.26-2v108.8A173.82,173.82,0,0,1,401.38,195.22Z"/><path d="M270.92,0a49.21,49.21,0,0,0-49.21,49.21V87.29h0v18.29h0v127.1c-24,16.39-41.78,44.05-41.78,75.31a91,91,0,0,0,182,0c0-32.94-15.57-61.82-41.78-77.79v-181A49.21,49.21,0,0,0,270.92,0Z"/></g></g></svg>