<?xml version="1.0" encoding="UTF-8"?>
<svg id="Capa_2" data-name="Capa 2" xmlns="http://www.w3.org/2000/svg" viewBox="0 0 564.66 569.59">
  <defs>
    <style>
      .cls-1, .cls-2 {
        fill: #fff;
      }

      .cls-3 {
        fill: #67c15e;
      }

      .cls-3, .cls-2 {
        fill-rule: evenodd;
      }
    </style>
  </defs>
  <g id="Capa_1-2" data-name="Capa 1">
    <g>
      <path class="cls-2" d="M285.26,.01h-.16s-.51-.01-.51-.01C130.24,0,4.66,125.61,4.66,280c0,29.98,4.74,59.51,14.09,87.76,7.05,21.34,16.64,41.68,28.59,60.67l-24.75,73.79L0,569.59l67.68-21.63,78.03-24.94c42.2,24.25,89.91,36.98,139.02,36.98,154.36,0,279.93-125.6,279.93-280S439.37,.3,285.26,.01Z"/>
      <path class="cls-3" d="M284.73,34.07h-.14c-135.58-.01-245.87,110.31-245.87,245.93,0,53.78,17.35,103.67,46.84,144.16l-30.65,91.37,94.54-30.21c38.88,25.73,85.28,40.62,135.29,40.62,135.59,0,245.87-110.32,245.87-245.94S420.32,34.07,284.73,34.07Z"/>
      <path class="cls-1" d="M431.74,384.12c-6.09,17.24-30.32,31.51-49.63,35.67-4.09,.87-8.56,1.69-14.51,1.69-13.28,0-33.91-4.08-74.05-20.71-74.29-30.77-122.14-106.27-125.86-111.18-3.56-4.91-30.01-39.98-30.01-76.25s18.42-53.95,25.85-61.52c6.09-6.25,16.19-9.07,25.85-9.07,3.13,0,5.95,.15,8.48,.29,7.43,.3,11.14,.75,16.04,12.49,6.09,14.71,20.95,50.98,22.73,54.7,1.78,3.72,3.57,8.77,1.05,13.68-2.38,5.05-4.46,7.28-8.17,11.59-3.72,4.31-7.28,7.57-10.99,12.18-3.42,4.01-7.28,8.33-2.97,15.76,4.31,7.27,19.17,31.5,41.01,50.97,28.23,25.12,51.11,33.16,59.29,36.56,2.32,.96,4.81,1.47,7.25,1.47,3.97,0,7.81-1.35,10.58-4.29,5.65-6.09,12.63-16.2,19.76-26.16,3.41-4.81,7.42-6.79,11.73-6.79,2.07,0,4.22,.47,6.39,1.28,6.84,2.38,42.95,20.21,50.38,23.93,7.43,3.72,12.33,5.49,14.11,8.61,1.79,3.13,1.79,17.84-4.3,35.08Z"/>
    </g>
  </g>
</svg>